<svg width="15" height="22" viewBox="0 0 15 22" fill="none" xmlns="http://www.w3.org/2000/svg">
<path d="M14.4679 0.158127C13.2326 0.0495216 11.9911 -0.00325964 10.749 0.000155684C6.63066 0.000155684 4.07167 2.1789 4.07167 5.68711V8.0686H0.612245C0.274285 8.06841 0.000149648 8.29593 1.37578e-07 8.57672V12.4948C-0.000224067 12.7756 0.273612 13.0033 0.611572 13.0035H4.07167V20.8563C4.07144 21.1371 4.34528 21.3648 4.68324 21.365H9.55437C9.89233 21.3652 10.1664 21.1377 10.1666 20.8569V13.0035H13.6153C13.923 13.0034 14.1829 12.8138 14.2228 12.5603L14.8315 8.64286C14.8752 8.36442 14.6389 8.10921 14.3038 8.07288C14.2773 8.07003 14.2507 8.0686 14.224 8.0686H10.1666V6.07558C10.1666 5.08901 10.4058 4.67669 11.8909 4.67669L14.3878 4.6757C14.7257 4.67582 14.9998 4.44837 15 4.16757V0.662839C15.0001 0.407502 14.7725 0.191658 14.4679 0.158127ZM13.7755 3.65833L11.8909 3.65932C9.24825 3.65932 8.94212 5.03834 8.94212 6.07558V8.57734C8.94197 8.85808 9.21574 9.08584 9.5537 9.08597H13.528L13.0772 11.9861H9.55437C9.21641 11.986 8.94235 12.2134 8.94212 12.4942V20.3476H5.29616V12.4948C5.29638 12.214 5.02255 11.9863 4.68466 11.9861H1.22449V9.08597H4.68391C5.02187 9.08616 5.29593 8.85864 5.29616 8.57784V5.68711C5.29616 2.76316 7.33491 1.01753 10.749 1.01753C11.9842 1.01753 13.0999 1.07317 13.7755 1.12185V3.65833Z" fill="#FF0008"/>
</svg>
