<svg width="20" height="22" viewBox="0 0 20 22" fill="none" xmlns="http://www.w3.org/2000/svg">
<path d="M15.34 3.69614C15.1027 3.69614 14.8707 3.77132 14.6733 3.91218C14.476 4.05304 14.3222 4.25324 14.2313 4.48748C14.1405 4.72172 14.1168 4.97946 14.1631 5.22813C14.2094 5.47679 14.3236 5.7052 14.4915 5.88448C14.6593 6.06376 14.8731 6.18585 15.1059 6.23531C15.3387 6.28477 15.5799 6.25938 15.7992 6.16236C16.0185 6.06534 16.2059 5.90103 16.3378 5.69023C16.4696 5.47942 16.54 5.23158 16.54 4.97804C16.54 4.63806 16.4136 4.312 16.1885 4.0716C15.9635 3.8312 15.6583 3.69614 15.34 3.69614ZM19.94 6.2813C19.9206 5.39498 19.7652 4.51806 19.48 3.68546C19.2257 2.97308 18.83 2.32801 18.32 1.79466C17.8248 1.2471 17.2196 0.827013 16.55 0.566172C15.7727 0.252279 14.9508 0.0824795 14.12 0.0640949C13.06 -5.96931e-08 12.72 0 10 0C7.28 0 6.94 -5.96931e-08 5.88 0.0640949C5.04915 0.0824795 4.22734 0.252279 3.45 0.566172C2.78168 0.829654 2.17693 1.24938 1.68 1.79466C1.16743 2.32363 0.774176 2.9702 0.53 3.68546C0.236161 4.51586 0.07721 5.39375 0.0599999 6.2813C-5.58794e-08 7.41365 0 7.77685 0 10.6825C0 13.5881 -5.58794e-08 13.9513 0.0599999 15.0837C0.07721 15.9712 0.236161 16.8491 0.53 17.6795C0.774176 18.3948 1.16743 19.0413 1.68 19.5703C2.17693 20.1156 2.78168 20.5353 3.45 20.7988C4.22734 21.1127 5.04915 21.2825 5.88 21.3009C6.94 21.365 7.28 21.365 10 21.365C12.72 21.365 13.06 21.365 14.12 21.3009C14.9508 21.2825 15.7727 21.1127 16.55 20.7988C17.2196 20.538 17.8248 20.1179 18.32 19.5703C18.8322 19.039 19.2283 18.3933 19.48 17.6795C19.7652 16.8469 19.9206 15.97 19.94 15.0837C19.94 13.9513 20 13.5881 20 10.6825C20 7.77685 20 7.41365 19.94 6.2813ZM18.14 14.9555C18.1327 15.6336 18.0178 16.3054 17.8 16.9424C17.6403 17.4073 17.3839 17.8274 17.05 18.1709C16.7256 18.524 16.3332 18.7974 15.9 18.9721C15.3037 19.2047 14.6748 19.3275 14.04 19.3353C13.04 19.3887 12.67 19.3994 10.04 19.3994C7.41 19.3994 7.04 19.3994 6.04 19.3353C5.38089 19.3485 4.72459 19.2401 4.1 19.0148C3.68578 18.8312 3.31136 18.5585 3 18.2136C2.66809 17.8705 2.41484 17.4501 2.26 16.9852C2.01586 16.339 1.88044 15.6519 1.86 14.9555C1.86 13.8872 1.8 13.492 1.8 10.6825C1.8 7.873 1.8 7.47774 1.86 6.40949C1.86448 5.71626 1.98295 5.02926 2.21 4.37982C2.38605 3.92893 2.65627 3.52699 3 3.20475C3.30381 2.83745 3.67929 2.54574 4.1 2.35015C4.70955 2.11518 5.352 1.99237 6 1.98694C7 1.98694 7.37 1.92285 10 1.92285C12.63 1.92285 13 1.92285 14 1.98694C14.6348 1.99472 15.2637 2.11753 15.86 2.35015C16.3144 2.53031 16.7223 2.82322 17.05 3.20475C17.3777 3.53289 17.6338 3.93408 17.8 4.37982C18.0223 5.03031 18.1373 5.71703 18.14 6.40949C18.19 7.47774 18.2 7.873 18.2 10.6825C18.2 13.492 18.19 13.8872 18.14 14.9555ZM10 5.20237C8.98581 5.20448 7.99496 5.52768 7.15265 6.13113C6.31035 6.73457 5.65438 7.59119 5.26763 8.59273C4.88089 9.59428 4.78072 10.6958 4.97979 11.7581C5.17886 12.8205 5.66824 13.7959 6.38608 14.5613C7.10392 15.3266 8.01801 15.8475 9.01286 16.0581C10.0077 16.2687 11.0387 16.1595 11.9755 15.7444C12.9123 15.3293 13.7129 14.6269 14.2761 13.726C14.8394 12.825 15.14 11.7659 15.14 10.6825C15.1413 9.96153 15.0092 9.24741 14.7512 8.5812C14.4933 7.91498 14.1146 7.30983 13.6369 6.80053C13.1592 6.29123 12.5919 5.88785 11.9678 5.61357C11.3436 5.3393 10.6749 5.19956 10 5.20237ZM10 14.2398C9.34139 14.2398 8.69757 14.0311 8.14995 13.6403C7.60234 13.2494 7.17552 12.6938 6.92348 12.0438C6.67144 11.3938 6.6055 10.6785 6.73398 9.9885C6.86247 9.29846 7.17963 8.66461 7.64533 8.16712C8.11104 7.66963 8.70439 7.33083 9.35035 7.19357C9.99631 7.05632 10.6659 7.12676 11.2743 7.396C11.8828 7.66524 12.4029 8.12119 12.7688 8.70618C13.1347 9.29117 13.33 9.97893 13.33 10.6825C13.33 11.1496 13.2439 11.6122 13.0765 12.0438C12.9092 12.4754 12.6639 12.8675 12.3547 13.1979C12.0454 13.5282 11.6784 13.7902 11.2743 13.969C10.8703 14.1477 10.4373 14.2398 10 14.2398Z" fill="#FF0008"/>
</svg>
