<svg width="21" height="20" viewBox="0 0 21 20" fill="none" xmlns="http://www.w3.org/2000/svg">
<path d="M20.087 5.70353H17.5761C17.5761 5.70353 17.5533 5.63505 17.5533 5.61222L13.2391 0.339397C12.9196 -0.0486464 12.3489 -0.117125 11.9609 0.202441C11.5728 0.522006 11.5043 1.13831 11.8239 1.52635L15.225 5.70353H5.775L9.17609 1.52635C9.49565 1.13831 9.45 0.544832 9.03913 0.225267C8.65109 -0.0942986 8.08043 -0.0486464 7.76087 0.339397L3.44674 5.63505C3.44674 5.65788 3.42391 5.70353 3.42391 5.70353H0.913043C0.41087 5.70353 0 6.02309 0 6.52527V9.94918C0 10.4514 0.41087 10.9535 0.913043 10.9535H1.20978L2.92174 17.8927C3.10435 18.6916 3.81196 19.1709 4.6337 19.1709H16.3663C17.188 19.1709 17.8728 18.6687 18.0783 17.8927L19.7902 10.9535H20.087C20.5891 10.9535 21 10.4514 21 9.94918V6.52527C21 6.02309 20.5891 5.70353 20.087 5.70353ZM1.82609 7.52961H19.1739V9.12744H1.82609V7.52961ZM16.3207 17.3448H4.67935L3.08152 10.9535H17.9185L16.3207 17.3448Z" fill="#0000FF"/>
</svg>
